<svg xmlns="http://www.w3.org/2000/svg" viewBox="0 0 1200 700" fill="none">
  <defs>
    <linearGradient id="bg" x1="0%" y1="0%" x2="100%" y2="100%">
      <stop offset="0%" style="stop-color:#0f172a"/>
      <stop offset="100%" style="stop-color:#1e293b"/>
    </linearGradient>
    <linearGradient id="card" x1="0%" y1="0%" x2="0%" y2="100%">
      <stop offset="0%" style="stop-color:#1e293b"/>
      <stop offset="100%" style="stop-color:#334155"/>
    </linearGradient>
    <linearGradient id="green" x1="0%" y1="0%" x2="100%" y2="0%">
      <stop offset="0%" style="stop-color:#22c55e"/>
      <stop offset="100%" style="stop-color:#16a34a"/>
    </linearGradient>
    <linearGradient id="blue" x1="0%" y1="0%" x2="100%" y2="0%">
      <stop offset="0%" style="stop-color:#3b82f6"/>
      <stop offset="100%" style="stop-color:#2563eb"/>
    </linearGradient>
    <linearGradient id="purple" x1="0%" y1="0%" x2="100%" y2="0%">
      <stop offset="0%" style="stop-color:#a855f7"/>
      <stop offset="100%" style="stop-color:#9333ea"/>
    </linearGradient>
    <linearGradient id="orange" x1="0%" y1="0%" x2="100%" y2="0%">
      <stop offset="0%" style="stop-color:#f97316"/>
      <stop offset="100%" style="stop-color:#ea580c"/>
    </linearGradient>
  </defs>
  
  <!-- Background -->
  <rect width="1200" height="700" fill="url(#bg)"/>
  
  <!-- Sidebar -->
  <rect x="0" y="0" width="220" height="700" fill="#0f172a"/>
  
  <!-- Logo area -->
  <rect x="20" y="20" width="180" height="50" rx="8" fill="#1e293b"/>
  <text x="60" y="52" font-family="system-ui, sans-serif" font-size="18" font-weight="bold" fill="#f8fafc">SIN-Solver</text>
  <circle cx="40" cy="45" r="12" fill="url(#green)"/>
  
  <!-- Sidebar menu items -->
  <rect x="20" y="90" width="180" height="40" rx="6" fill="#3b82f6" opacity="0.2"/>
  <text x="50" y="116" font-family="system-ui, sans-serif" font-size="14" fill="#3b82f6">Dashboard</text>
  <circle cx="35" cy="110" r="4" fill="#3b82f6"/>
  
  <text x="50" y="156" font-family="system-ui, sans-serif" font-size="14" fill="#94a3b8">Solvers</text>
  <circle cx="35" cy="150" r="4" fill="#94a3b8"/>
  
  <text x="50" y="196" font-family="system-ui, sans-serif" font-size="14" fill="#94a3b8">Analytics</text>
  <circle cx="35" cy="190" r="4" fill="#94a3b8"/>
  
  <text x="50" y="236" font-family="system-ui, sans-serif" font-size="14" fill="#94a3b8">Workers</text>
  <circle cx="35" cy="230" r="4" fill="#94a3b8"/>
  
  <text x="50" y="276" font-family="system-ui, sans-serif" font-size="14" fill="#94a3b8">Settings</text>
  <circle cx="35" cy="270" r="4" fill="#94a3b8"/>
  
  <!-- Header -->
  <rect x="220" y="0" width="980" height="60" fill="#0f172a"/>
  <text x="250" y="38" font-family="system-ui, sans-serif" font-size="20" font-weight="600" fill="#f8fafc">Mission Control</text>
  
  <!-- Status badge -->
  <rect x="1050" y="18" width="100" height="24" rx="12" fill="#22c55e" opacity="0.2"/>
  <circle cx="1065" cy="30" r="4" fill="#22c55e"/>
  <text x="1075" y="35" font-family="system-ui, sans-serif" font-size="12" fill="#22c55e">All Systems</text>
  
  <!-- Stats Cards Row -->
  <!-- Card 1: Total Solves -->
  <rect x="250" y="80" width="220" height="100" rx="12" fill="url(#card)" stroke="#334155" stroke-width="1"/>
  <text x="270" y="110" font-family="system-ui, sans-serif" font-size="12" fill="#94a3b8">Total Solves (24h)</text>
  <text x="270" y="145" font-family="system-ui, sans-serif" font-size="32" font-weight="bold" fill="#f8fafc">15,420</text>
  <text x="270" y="165" font-family="system-ui, sans-serif" font-size="12" fill="#22c55e">↑ 12.5%</text>
  
  <!-- Card 2: Success Rate -->
  <rect x="490" y="80" width="220" height="100" rx="12" fill="url(#card)" stroke="#334155" stroke-width="1"/>
  <text x="510" y="110" font-family="system-ui, sans-serif" font-size="12" fill="#94a3b8">Success Rate</text>
  <text x="510" y="145" font-family="system-ui, sans-serif" font-size="32" font-weight="bold" fill="#22c55e">96.5%</text>
  <text x="510" y="165" font-family="system-ui, sans-serif" font-size="12" fill="#22c55e">↑ 2.1%</text>
  
  <!-- Card 3: Avg Latency -->
  <rect x="730" y="80" width="220" height="100" rx="12" fill="url(#card)" stroke="#334155" stroke-width="1"/>
  <text x="750" y="110" font-family="system-ui, sans-serif" font-size="12" fill="#94a3b8">Avg Latency</text>
  <text x="750" y="145" font-family="system-ui, sans-serif" font-size="32" font-weight="bold" fill="#f8fafc">8.5s</text>
  <text x="750" y="165" font-family="system-ui, sans-serif" font-size="12" fill="#22c55e">↓ 1.2s</text>
  
  <!-- Card 4: Cost -->
  <rect x="970" y="80" width="180" height="100" rx="12" fill="url(#card)" stroke="#334155" stroke-width="1"/>
  <text x="990" y="110" font-family="system-ui, sans-serif" font-size="12" fill="#94a3b8">Cost (24h)</text>
  <text x="990" y="145" font-family="system-ui, sans-serif" font-size="32" font-weight="bold" fill="#f8fafc">$308</text>
  <text x="990" y="165" font-family="system-ui, sans-serif" font-size="12" fill="#94a3b8">$0.02/solve</text>
  
  <!-- Chart Area -->
  <rect x="250" y="200" width="460" height="250" rx="12" fill="url(#card)" stroke="#334155" stroke-width="1"/>
  <text x="270" y="230" font-family="system-ui, sans-serif" font-size="14" font-weight="600" fill="#f8fafc">Solve Activity</text>
  
  <!-- Chart lines (simplified) -->
  <polyline points="280,380 330,350 380,360 430,320 480,340 530,300 580,310 630,280 680,290" 
            stroke="url(#blue)" stroke-width="2" fill="none"/>
  <polyline points="280,400 330,390 380,395 430,370 480,380 530,360 580,365 630,340 680,350" 
            stroke="url(#green)" stroke-width="2" fill="none" opacity="0.6"/>
  
  <!-- Chart legend -->
  <circle cx="280" cy="420" r="4" fill="#3b82f6"/>
  <text x="290" y="424" font-family="system-ui, sans-serif" font-size="10" fill="#94a3b8">Requests</text>
  <circle cx="360" cy="420" r="4" fill="#22c55e"/>
  <text x="370" y="424" font-family="system-ui, sans-serif" font-size="10" fill="#94a3b8">Solved</text>
  
  <!-- Workers Status -->
  <rect x="730" y="200" width="420" height="250" rx="12" fill="url(#card)" stroke="#334155" stroke-width="1"/>
  <text x="750" y="230" font-family="system-ui, sans-serif" font-size="14" font-weight="600" fill="#f8fafc">Active Workers</text>
  
  <!-- Worker rows -->
  <rect x="750" y="250" width="380" height="36" rx="6" fill="#0f172a"/>
  <circle cx="770" cy="268" r="6" fill="#22c55e"/>
  <text x="785" y="273" font-family="system-ui, sans-serif" font-size="12" fill="#f8fafc">agent-05-steel-browser</text>
  <text x="1050" y="273" font-family="system-ui, sans-serif" font-size="12" fill="#22c55e">3/10</text>
  
  <rect x="750" y="295" width="380" height="36" rx="6" fill="#0f172a"/>
  <circle cx="770" cy="313" r="6" fill="#22c55e"/>
  <text x="785" y="318" font-family="system-ui, sans-serif" font-size="12" fill="#f8fafc">agent-06-skyvern-solver</text>
  <text x="1050" y="318" font-family="system-ui, sans-serif" font-size="12" fill="#22c55e">2/5</text>
  
  <rect x="750" y="340" width="380" height="36" rx="6" fill="#0f172a"/>
  <circle cx="770" cy="358" r="6" fill="#22c55e"/>
  <text x="785" y="363" font-family="system-ui, sans-serif" font-size="12" fill="#f8fafc">solver-19-captcha-worker</text>
  <text x="1050" y="363" font-family="system-ui, sans-serif" font-size="12" fill="#22c55e">5/10</text>
  
  <rect x="750" y="385" width="380" height="36" rx="6" fill="#0f172a"/>
  <circle cx="770" cy="403" r="6" fill="#f97316"/>
  <text x="785" y="408" font-family="system-ui, sans-serif" font-size="12" fill="#f8fafc">solver-18-survey-worker</text>
  <text x="1050" y="408" font-family="system-ui, sans-serif" font-size="12" fill="#f97316">1/5</text>
  
  <!-- Recent Activity -->
  <rect x="250" y="470" width="900" height="210" rx="12" fill="url(#card)" stroke="#334155" stroke-width="1"/>
  <text x="270" y="500" font-family="system-ui, sans-serif" font-size="14" font-weight="600" fill="#f8fafc">Recent Solves</text>
  
  <!-- Table header -->
  <text x="280" y="535" font-family="system-ui, sans-serif" font-size="11" fill="#64748b">TYPE</text>
  <text x="420" y="535" font-family="system-ui, sans-serif" font-size="11" fill="#64748b">STATUS</text>
  <text x="540" y="535" font-family="system-ui, sans-serif" font-size="11" fill="#64748b">TIME</text>
  <text x="660" y="535" font-family="system-ui, sans-serif" font-size="11" fill="#64748b">SOLVER</text>
  <text x="850" y="535" font-family="system-ui, sans-serif" font-size="11" fill="#64748b">CONFIDENCE</text>
  
  <!-- Table rows -->
  <rect x="270" y="545" width="860" height="1" fill="#334155"/>
  
  <text x="280" y="570" font-family="system-ui, sans-serif" font-size="12" fill="#f8fafc">reCAPTCHA v2</text>
  <rect x="420" y="558" width="60" height="20" rx="4" fill="#22c55e" opacity="0.2"/>
  <text x="432" y="572" font-family="system-ui, sans-serif" font-size="11" fill="#22c55e">Solved</text>
  <text x="540" y="570" font-family="system-ui, sans-serif" font-size="12" fill="#94a3b8">8.2s</text>
  <text x="660" y="570" font-family="system-ui, sans-serif" font-size="12" fill="#94a3b8">gemini-consensus</text>
  <text x="850" y="570" font-family="system-ui, sans-serif" font-size="12" fill="#22c55e">98%</text>
  
  <text x="280" y="600" font-family="system-ui, sans-serif" font-size="12" fill="#f8fafc">hCaptcha</text>
  <rect x="420" y="588" width="60" height="20" rx="4" fill="#22c55e" opacity="0.2"/>
  <text x="432" y="602" font-family="system-ui, sans-serif" font-size="11" fill="#22c55e">Solved</text>
  <text x="540" y="600" font-family="system-ui, sans-serif" font-size="12" fill="#94a3b8">10.1s</text>
  <text x="660" y="600" font-family="system-ui, sans-serif" font-size="12" fill="#94a3b8">yolo-v8x</text>
  <text x="850" y="600" font-family="system-ui, sans-serif" font-size="12" fill="#22c55e">95%</text>
  
  <text x="280" y="630" font-family="system-ui, sans-serif" font-size="12" fill="#f8fafc">Turnstile</text>
  <rect x="420" y="618" width="60" height="20" rx="4" fill="#22c55e" opacity="0.2"/>
  <text x="432" y="632" font-family="system-ui, sans-serif" font-size="11" fill="#22c55e">Solved</text>
  <text x="540" y="630" font-family="system-ui, sans-serif" font-size="12" fill="#94a3b8">4.8s</text>
  <text x="660" y="630" font-family="system-ui, sans-serif" font-size="12" fill="#94a3b8">mistral-vision</text>
  <text x="850" y="630" font-family="system-ui, sans-serif" font-size="12" fill="#22c55e">97%</text>
  
  <text x="280" y="660" font-family="system-ui, sans-serif" font-size="12" fill="#f8fafc">reCAPTCHA v3</text>
  <rect x="420" y="648" width="60" height="20" rx="4" fill="#f97316" opacity="0.2"/>
  <text x="430" y="662" font-family="system-ui, sans-serif" font-size="11" fill="#f97316">Pending</text>
  <text x="540" y="660" font-family="system-ui, sans-serif" font-size="12" fill="#94a3b8">-</text>
  <text x="660" y="660" font-family="system-ui, sans-serif" font-size="12" fill="#94a3b8">-</text>
  <text x="850" y="660" font-family="system-ui, sans-serif" font-size="12" fill="#94a3b8">-</text>
</svg>
